<?xml version="1.0" encoding="UTF-8"?>
<!DOCTYPE svg PUBLIC "-//W3C//DTD SVG 1.1//EN" "http://www.w3.org/Graphics/SVG/1.1/DTD/svg11.dtd">
<!-- Creator: CorelDRAW 2020 (64 Bit) -->
<svg xmlns="http://www.w3.org/2000/svg" xml:space="preserve" width="10364px" height="7750px" version="1.1" style="shape-rendering:geometricPrecision; text-rendering:geometricPrecision; image-rendering:optimizeQuality; fill-rule:evenodd; clip-rule:evenodd"
viewBox="0 0 8878.93 6640.1"
 xmlns:xlink="http://www.w3.org/1999/xlink"
 xmlns:xodm="http://www.corel.com/coreldraw/odm/2003">
 <defs>
  <style type="text/css">
   <![CDATA[
    .fil0 {fill:none;fill-rule:nonzero}
    .fil7 {fill:#E3BD95;fill-rule:nonzero}
    .fil5 {fill:#DDE0DF;fill-rule:nonzero}
    .fil10 {fill:#D6B591;fill-rule:nonzero}
    .fil8 {fill:#C6C7C8;fill-rule:nonzero}
    .fil6 {fill:#B8BBBB;fill-rule:nonzero}
    .fil4 {fill:#B1C6CF;fill-rule:nonzero}
    .fil9 {fill:#474A4B;fill-rule:nonzero}
    .fil11 {fill:#3F4143;fill-rule:nonzero}
    .fil3 {fill:#3C3E40;fill-rule:nonzero}
    .fil1 {fill:aqua;fill-rule:nonzero}
    .fil2 {fill:white;fill-rule:nonzero}
   ]]>
  </style>
 </defs>
 <g id="Camada_x0020_1">
  <metadata id="CorelCorpID_0Corel-Layer"/>
  <line class="fil0" x1="4221.03" y1="4220.47" x2="2076.77" y2= "4250.85" />
  <path class="fil1" d="M2076.76 4288.33c-20.45,0 -37.17,-16.45 -37.47,-36.94 -0.29,-20.71 16.25,-37.74 36.95,-38.02l2144.26 -30.38 0.53 0c20.46,0 37.2,16.42 37.49,36.95 0.28,20.7 -16.24,37.69 -36.95,38.02l-2144.26 30.37 -0.55 0z"/>
  <path class="fil2" d="M3353.61 4829.8l-1778.23 0c-8.41,0 -15.22,-6.82 -15.22,-15.25 0,-8.38 6.81,-15.2 15.22,-15.2l1778.23 0c8.39,0 15.21,6.82 15.21,15.2 0,8.43 -6.82,15.25 -15.21,15.25z"/>
  <path class="fil2" d="M2953.47 5241.75l-1655.23 0c-7.74,0 -14.02,-6.25 -14.02,-14 0,-7.74 6.28,-14.03 14.02,-14.03l1655.23 0c7.75,0 14.04,6.29 14.04,14.03 0,7.75 -6.29,14 -14.04,14z"/>
  <path class="fil2" d="M2531.6 5656.13l-2173.18 0c-8.41,0 -15.23,-6.78 -15.23,-15.21 0,-8.42 6.82,-15.24 15.23,-15.24l2173.18 0c8.4,0 15.22,6.82 15.22,15.24 0,8.43 -6.82,15.21 -15.22,15.21z"/>
  <path class="fil2" d="M1398.08 4836.15l-99.84 0c-8.4,0 -15.22,-6.82 -15.22,-15.24 0,-8.39 6.82,-15.21 15.22,-15.21l99.84 0c8.4,0 15.22,6.82 15.22,15.21 0,8.42 -6.82,15.24 -15.22,15.24z"/>
  <path class="fil2" d="M866.98 5242.97l-121.08 0c-8.41,0 -15.23,-6.82 -15.23,-15.22 0,-8.42 6.82,-15.24 15.23,-15.24l121.08 0c8.41,0 15.22,6.82 15.22,15.24 0,8.4 -6.81,15.22 -15.22,15.22z"/>
  <path class="fil2" d="M1132.29 5242.97l-121.1 0c-8.4,0 -15.22,-6.82 -15.22,-15.22 0,-8.42 6.82,-15.24 15.22,-15.24l121.1 0c8.4,0 15.22,6.82 15.22,15.24 0,8.4 -6.82,15.22 -15.22,15.22z"/>
  <path class="fil2" d="M136.31 5656.13l-121.09 0c-8.41,0 -15.22,-6.78 -15.22,-15.21 0,-8.42 6.81,-15.24 15.22,-15.24l121.09 0c8.41,0 15.22,6.82 15.22,15.24 0,8.43 -6.81,15.21 -15.22,15.21z"/>
  <path class="fil1" d="M3485.09 5950.14l1471.89 0c128.58,0 232.82,-104.24 232.82,-232.82l0 -130.34c0,-128.58 -104.24,-232.82 -232.82,-232.82l-1471.89 0c-128.59,0 -232.82,104.24 -232.82,232.82l0 130.34c0,128.58 104.23,232.82 232.82,232.82z"/>
  <path class="fil3" d="M3485.09 5383.86c-112.02,0 -203.12,91.14 -203.12,203.12l0 130.34c0,111.98 91.1,203.12 203.12,203.12l1471.89 0c112.02,0 203.12,-91.14 203.12,-203.12l0 -130.34c0,-111.98 -91.1,-203.12 -203.12,-203.12l-1471.89 0zm1471.89 595.98l-1471.89 0c-144.76,0 -262.52,-117.77 -262.52,-262.52l0 -130.34c0,-144.75 117.76,-262.52 262.52,-262.52l1471.89 0c144.75,0 262.53,117.77 262.53,262.52l0 130.34c0,144.75 -117.78,262.52 -262.53,262.52z"/>
  <path class="fil2" d="M8268.63 6634.89c-307.04,0 -556.85,-249.81 -556.85,-556.88 0,-307.04 249.81,-556.85 556.85,-556.85 307.05,0 556.86,249.81 556.86,556.85 0,307.07 -249.81,556.88 -556.86,556.88zm-330.55 -556.88c0,182.59 147.98,330.6 330.55,330.6 182.58,0 330.63,-148.01 330.63,-330.6 0,-182.56 -148.05,-330.56 -330.63,-330.56 -182.57,0 -330.55,148 -330.55,330.56z"/>
  <path class="fil2" d="M4316.34 6640.1c-363.15,0 -658.58,-295.43 -658.58,-658.58 0,-363.16 295.43,-658.59 658.58,-658.59 363.16,0 658.6,295.43 658.6,658.59 0,363.15 -295.44,658.58 -658.6,658.58zm-390.96 -658.58c0,215.89 175.07,390.92 390.96,390.92 215.91,0 390.93,-175.03 390.93,-390.92 0,-215.94 -175.02,-390.97 -390.93,-390.97 -215.89,0 -390.96,175.03 -390.96,390.97z"/>
  <path class="fil1" d="M7796.61 5370.16c-181.27,199.23 -242.44,418.98 -217.84,615.57 5.98,48.12 52.92,80 99.79,67.57l1140.8 -302.53c46.57,-12.35 71.98,-62.94 53.51,-107.45 -147.54,-355.77 -592.7,-566.6 -1055.24,-290.37 -7.74,4.67 -14.82,10.49 -21.02,17.21z"/>
  <path class="fil2" d="M7802.66 5462.11c-29.71,114.91 -84.61,217.69 -157.31,300.15 -54.9,62.22 -119.95,112.98 -193.24,148.79 -77.16,37.87 -163.38,59.26 -256.09,60.4l-2023.1 0c-73.36,-2.21 -139.98,-73.15 -139.98,-160.57l0 -390c0,-43.76 16.68,-83.32 43.56,-111.98 26.91,-28.67 64.11,-46.38 105.12,-46.38 33.96,0 66.94,12.32 93.29,35.13 265.87,229.93 630.45,371.76 1032.77,371.76 253.56,0 492.16,-56.33 700.43,-155.61 122.28,-58.19 234.05,-131.11 332.38,-216.15 26.28,-22.81 59.28,-35.13 93.22,-35.13l225.43 0c97.82,0 169.59,99.1 143.52,199.59z"/>
  <path class="fil1" d="M5844.57 4414.52c-511.94,186.63 -489.56,757.94 -463.5,964.03 5.96,47.08 12.1,75.1 12.1,75.1l-458.64 231.07 -562.39 -18.34 -810.09 16.13 -111.48 2.21c-48.23,0 -95.24,-55.19 -96.49,-100.88 -24.14,-885.02 872.52,-1366.47 872.52,-1366.47 0,0 1435.38,-13.79 1617.97,-0.61 19.31,1.39 34.52,4.71 46.3,9.49l0.07 0c5.64,2.29 10.5,4.97 14.64,7.93 68.89,49.05 -61.01,180.34 -61.01,180.34z"/>
  <path class="fil2" d="M5962.33 4402.28c-537.78,188.41 -514.26,765.25 -486.87,973.3 6.24,47.55 12.71,75.82 12.71,75.82l-95.18 46.09 -386.61 187.23 -590.75 -18.52 -850.97 16.27c-30.31,-19.81 -53.09,-55.29 -53.98,-86.42 -24.63,-867.1 861.64,-1350.52 914.11,-1378.36 1.61,-0.86 2.44,-1.29 2.44,-1.29 0,0 226.14,-2.11 514.4,-3.89 342.95,-2.11 773.82,-3.82 1016.43,-1.07 18.81,0.25 36.51,0.47 52.93,0.75l0.04 0c5.92,2.32 11.06,4.99 15.39,7.99 72.39,49.56 -64.09,182.1 -64.09,182.1z"/>
  <path class="fil1" d="M3551.52 5834.16c0.75,20.13 2,40.08 3.71,59.86 6.64,75.68 70.79,133.37 146.75,133.34l1342.03 -0.94c79,-0.03 144.22,-62.33 147.15,-141.29 1.36,-37.05 1.36,-74.64 -0.04,-112.7 -20.53,-555.99 50.45,-1006.32 -427.66,-988.64 -478.1,17.63 -1232.47,494.41 -1211.94,1050.37z"/>
  <path class="fil2" d="M3677.64 5834.84c0.75,20.09 2,40.05 3.71,59.82 6.64,75.68 70.79,133.4 146.79,133.34l1342.02 -0.9c78.97,-0.07 144.19,-62.36 147.12,-141.29 1.35,-37.09 1.39,-74.68 -0.04,-112.73 -20.52,-556 50.44,-1006.32 -427.66,-988.66 -478.1,17.64 -1232.46,494.42 -1211.94,1050.42z"/>
  <polygon class="fil1" points="5848.5,4250.85 4442.54,4250.17 4442.57,4182.6 5848.53,4183.27 "/>
  <path class="fil1" d="M6046.37 4089.82c0,56.79 -37.05,104.98 -88.31,121.62 -12.46,4.07 -25.74,6.25 -39.56,6.25l-1775.89 0c-35.31,0 -67.26,-14.32 -90.42,-37.45 -23.14,-23.14 -37.45,-55.12 -37.45,-90.42 0,-69.73 0,-201.66 208.86,-205.05 2.72,-0.04 5.5,-0.07 8.29,-0.07l1686.61 77.21c35.34,0 67.29,14.32 90.42,37.44 23.13,23.18 37.45,55.16 37.45,90.47z"/>
  <path class="fil1" d="M8625.25 5318.28l-1071.3 565.28c-21.83,17.99 -57.53,28.06 -101.84,33.45 -63.07,7.71 -143.52,5.96 -225.72,4.18 -152.21,-3.25 -310.77,-6.5 -376.91,50.26l-137.75 0c117.6,-157.07 215.94,-290.87 296.38,-412.52 430.06,-650.27 350.48,-954.21 -9.12,-2614.52l300.11 0c0,0 6.71,8.46 18.91,24.35 132.28,171.96 912.66,1213.52 872.88,1809.52l222.07 217.02c43.8,30.73 252.95,287.68 212.29,322.98z"/>
  <path class="fil2" d="M8642.62 5311.33l-1071.3 565.27c-301.57,151.4 -502.91,86.85 -723.45,99.2 683.74,-934.35 702.35,-1091.39 285.95,-3014l201.56 0c132.28,171.96 912.67,1213.51 872.95,1809.53l222 217c43.88,30.73 252.95,287.69 212.29,323z"/>
  <path class="fil1" d="M6968.11 2710.56l0 198.73c0,37.91 30.73,68.65 68.62,68.65l746.08 0c59.71,0 108.04,-56.37 108.04,-125.8l0 -303.83c0,-69.5 -48.33,-125.79 -108.04,-125.79 -25.48,0 -50.96,0.64 -76.36,2.06 -101.47,5.4 -202,21.67 -299.89,48.34 -122.43,33.34 -240.91,82.96 -352.38,148l-52.05 30.31c-21.03,12.32 -34.02,34.91 -34.02,59.33z"/>
  <path class="fil3" d="M6935.26 2890.12c0,61.05 49.49,110.56 110.52,110.56 61.03,0 110.53,-49.51 110.53,-110.56 0,-61.04 -49.5,-110.52 -110.53,-110.52 -61.03,0 -110.52,49.48 -110.52,110.52z"/>
  <polygon class="fil3" points="6836.34,3000.68 7045.74,3000.68 7045.74,2779.6 6836.34,2779.6 "/>
  <path class="fil4" d="M6731.66 2890.12c0,61.05 49.49,110.56 110.52,110.56 61.03,0 110.53,-49.51 110.53,-110.56 0,-61.04 -49.5,-110.52 -110.53,-110.52 -61.03,0 -110.52,49.48 -110.52,110.52z"/>
  <path class="fil5" d="M7706.45 2424.58l0 553.36 76.36 0c59.71,0 108.04,-56.37 108.04,-125.8l0 -303.83c0,-69.5 -48.33,-125.79 -108.04,-125.79 -25.48,0 -50.96,0.64 -76.36,2.06z"/>
  <path class="fil5" d="M7714.7 2969.72l68.11 0c55.04,0 99.86,-52.75 99.86,-117.58l0 -303.83c0,-64.86 -44.82,-117.62 -99.86,-117.62 -22.92,0 -45.77,0.57 -68.11,1.67l0 537.36zm68.11 16.43l-84.54 0 0 -569.35 7.74 -0.43c25.11,-1.39 50.95,-2.07 76.8,-2.07 64.09,0 116.29,60.11 116.29,134.01l0 303.83c0,73.89 -52.2,134.01 -116.29,134.01z"/>
  <path class="fil1" d="M4738.61 5506.16l-733.51 0c-13.35,0 -24.13,-10.77 -24.13,-24.13 0,-13.31 10.78,-24.13 24.13,-24.13l733.51 0c13.32,0 24.1,10.82 24.1,24.13 0,13.36 -10.78,24.13 -24.1,24.13z"/>
  <path class="fil1" d="M4736.19 5614.76l-733.52 0c-13.32,0 -24.14,-10.82 -24.14,-24.14 0,-13.31 10.82,-24.12 24.14,-24.12l733.52 0c13.32,0 24.13,10.81 24.13,24.12 0,13.32 -10.81,24.14 -24.13,24.14z"/>
  <path class="fil1" d="M4736.19 5725.74l-733.52 0c-13.32,0 -24.14,-10.82 -24.14,-24.13 0,-13.32 10.82,-24.13 24.14,-24.13l733.52 0c13.32,0 24.13,10.81 24.13,24.13 0,13.31 -10.81,24.13 -24.13,24.13z"/>
  <path class="fil6" d="M6307.68 5669.41c-12.25,0 -24.49,-0.1 -36.7,-0.39 66.15,-9.74 153.11,-15.67 248.39,-15.67 6.82,0 13.6,0.03 20.34,0.11 -75.57,10.49 -153.07,15.95 -232.03,15.95z"/>
  <path class="fil2" d="M6519.37 5778.29c-207.01,0 -374.83,-27.99 -374.83,-62.48 0,-18.63 48.9,-35.34 126.44,-46.79 12.21,0.29 24.45,0.39 36.7,0.39 78.96,0 156.46,-5.46 232.03,-15.95 197.57,1.74 354.45,28.98 354.45,62.35 0,34.49 -167.76,62.48 -374.79,62.48z"/>
  <path class="fil1" d="M6316.64 5390.68l-8.96 308.5 571.58 0c0,0 -2.84,-71.29 -147.6,-149.57 -144.75,-78.32 -138.18,-114.56 -138.18,-114.56l-276.84 -44.37z"/>
  <path class="fil7" d="M6273.77 1070.46l-107.13 75.18c-17.28,128.98 -51.91,256.13 -120.27,306.61 -159.71,117.8 -386.11,103.99 -449.04,95.67 -62.94,-8.32 -159.61,275.05 -159.61,275.05l-292.22 22.63 -119.98 2.79c0,0 198.37,-195.27 236.89,-312.54 8.36,-25.34 9.25,-47.05 -1,-62.36 -57.58,-86.11 -294.9,-300.11 -228.47,-404.03 66.51,-103.94 -65.54,-372.15 159.25,-531.66 224.76,-159.43 660.95,-69.57 660.95,-69.57 49.08,21.25 128.05,62.78 203.15,140.68 67.62,70.15 105.13,141.69 125.38,188.93 0,0 1.28,28.47 1.36,73.8 0.03,17.96 -0.15,38.47 -0.68,60.88l91.42 137.94z"/>
  <polygon class="fil8" points="4243.06,3885.19 4231.89,3884.7 4243.06,3885.19 "/>
  <path class="fil9" d="M4255.95 3896.55c-10.89,-4 -21.71,-7.93 -32.35,-11.78 2.72,-0.04 5.5,-0.07 8.29,-0.07l0 0 11.17 0.49c4.17,3.9 8.46,7.65 12.89,11.36z"/>
  <path class="fil8" d="M5463.86 5197.91c0.03,-260.31 76.24,-647.7 498.47,-795.63 0,0 0,0 0.04,-0.04 -0.04,0.04 -0.04,0.04 -0.04,0.04 -422.23,147.93 -498.44,535.32 -498.47,795.63z"/>
  <path class="fil1" d="M5392.99 5497.49c0,0 -8.81,-550.96 -131.58,-961.88 -29.56,-98.95 -128.26,-195.55 -261.02,-285.19l848.11 0.43 0.03 -33.16 69.97 0c1.33,0 2.6,-0.04 3.9,-0.07l56.29 167.49c-9.32,10.32 -15.89,16.74 -16.32,17.13 -0.04,0.04 -0.04,0.04 -0.04,0.04 -422.23,147.93 -498.44,535.32 -498.47,795.63 0,71.26 5.71,132.97 11.6,177.67 6.24,47.55 12.71,75.82 12.71,75.82l-95.18 46.09z"/>
  <path class="fil1" d="M5848.5 4250.85l-848.11 -0.43c-16.35,-11.03 -33.16,-21.91 -50.48,-32.73l898.62 0 -0.03 33.16z"/>
  <path class="fil1" d="M5918.5 4217.69l-968.59 0c-2.74,-1.75 -5.5,-3.47 -8.28,-5.18 -110.38,-68.18 -238.43,-131.76 -367.61,-188.52 112.76,20.38 238.99,28.28 366.86,28.28 437.91,0 894.84,-92.57 894.84,-92.57l86.68 257.92c-1.3,0.03 -2.57,0.07 -3.9,0.07z"/>
  <path class="fil2" d="M6457.29 3809.88c-249.31,-529.19 -1189.84,-582.77 -1189.84,-582.77l-15.47 0 -1004.96 143.5c-137.72,248.14 -116.05,410.7 -3.96,514.58 4.17,3.9 8.46,7.65 12.89,11.36 76.03,63.79 188.09,103.91 318.07,127.44 498.98,90.24 1261.7,-64.29 1261.7,-64.29l142.97 425.41 333.63 1096.89 306.93 -2c0,0 89.56,-1136.41 -161.96,-1670.12z"/>
  <path class="fil1" d="M5150.39 3405.42l-861.36 -12.5c-24.59,-0.36 -44.72,-19.1 -46.75,-43.26 -9.72,-114.63 37.66,-488.21 706.49,-1451.37 404.67,-582.76 664.16,129.76 700.78,239.89 2.97,8.92 3.14,18.49 0.5,27.52l-325.14 1119.52c-22.2,71.9 -93.69,121.13 -174.52,120.2z"/>
  <path class="fil3" d="M5877.94 1582.58c-4.74,0 -9.56,-1.03 -14.09,-3.21 -3.97,-1.9 -98.07,-47.48 -213.58,-131.98 -107.13,-78.35 -253.17,-206.33 -340.42,-370.92 -8.46,-15.92 -2.39,-35.69 13.53,-44.08 15.92,-8.47 35.66,-2.41 44.09,13.53 156.18,294.6 520.97,472.87 524.65,474.65 16.21,7.82 23.06,27.31 15.24,43.52 -5.64,11.67 -17.27,18.49 -29.42,18.49z"/>
  <path class="fil10" d="M5262.41 1535.85c4.17,-12.67 6.5,-24.41 6.46,-34.95 0,-10.49 -2.32,-19.74 -7.46,-27.41 -50.62,-75.68 -240.07,-250.17 -240.1,-361.86 0,-15.39 3.6,-29.59 11.63,-42.17 17.78,-27.82 21.38,-67.37 21.38,-113.5 0,-30.96 -1.59,-64.83 -1.59,-100.16 0,-108.48 15.19,-229.81 139.46,-318 105.63,-74.97 258.03,-94.83 389.82,-94.83 148.65,0 271.13,25.26 271.13,25.26 49.08,21.25 128.05,62.78 203.15,140.68 67.62,70.15 105.13,141.69 125.38,188.93 0,0 1.28,28.47 1.36,73.8l-513.99 41.98c-87.74,52.41 -133.18,143.92 -156.35,256.08l-12.75 58.72c-50.47,-54.32 -96.88,-115.4 -132.47,-182.5 -5.86,-11.05 -17.14,-17.33 -28.85,-17.33 -5.14,0 -10.35,1.17 -15.24,3.8 -15.92,8.39 -21.99,28.16 -13.53,44.08 46.16,87.1 108.85,163.98 173.46,228.63l-0.86 4c-24.74,119.91 -115.27,200.15 -220.04,226.75z"/>
  <path class="fil11" d="M5483.31 1305.1c-64.61,-64.65 -127.3,-141.53 -173.46,-228.63 -8.46,-15.92 -2.39,-35.69 13.53,-44.08 4.89,-2.63 10.1,-3.8 15.24,-3.8 11.71,0 22.99,6.28 28.85,17.33 35.59,67.1 82,128.18 132.47,182.5l-16.63 76.68z"/>
  <path class="fil2" d="M6273.77 564.74l-775 223.61 -80.29 388.66c-38.59,186.67 -236.57,277.31 -399.67,218.87 -43.27,-15.53 -84.07,-41.55 -118.8,-79.04 -1.15,-1.21 -2.33,-2.42 -3.43,-3.71 -128.8,-140.77 -205.94,-325.85 -205.94,-524.78 0,-432.47 364.79,-788.35 808.13,-788.35 265.8,0 438.04,63.37 556.34,171.77 107.53,98.41 170.46,233.97 218.66,392.97z"/>
  <path class="fil2" d="M6273.05 564.74l-594.76 185.28c-137.37,39.64 -200.94,147.54 -229.86,287.63l-30.24 139.36c-38.55,186.67 -236.46,277.31 -399.45,218.87 -126.37,-140.22 -201.98,-323.59 -201.98,-520.52 0,-432.53 364.65,-788.41 807.74,-788.41 183.7,0 322.7,30.36 430.01,84.82 107.48,98.41 170.39,233.97 218.54,392.97z"/>
  <path class="fil2" d="M5604.25 781.56l805.21 -65.71c17.84,-1.46 26.63,-22.48 15.09,-36.2l-187.91 -223.68c-6.43,-7.67 -17.21,-10 -26.28,-5.77l-617.28 289.38c-22.28,10.44 -13.35,44.02 11.17,41.98z"/>
  <path class="fil7" d="M7047.9 3000.96c-56.5,30.41 -30.44,26.1 -60.52,-0.28 -30,-26.39 -9.05,-108.45 -34.67,-170.14 -25.63,-61.61 -110.53,-50.94 -110.53,-50.94 0,0 -81.32,-4.82 -110.52,81.04 -29.2,85.85 43.43,117.3 43.43,117.3 0,0 85.41,-1.04 97.53,0 14.38,1.24 27.45,5.6 27.45,5.6 0,0 12.99,8.71 15.55,17.14 0.29,0.82 0.51,1.7 0.66,2.6 4.89,22.24 -11.46,43.63 -34.09,46.16 -29.5,3.35 -72.64,5.42 -103.96,-5 -52.2,-17.38 -71.76,-43.76 -71.76,-43.76 0,0 -725.1,28.99 -1028.57,-78.01 -148.4,-52.32 -248.17,-234.56 -311.4,-407.05 0,0 318.54,-25.28 394.36,-138.58 27.59,74.5 58.47,153.03 84.35,206.69 25.74,53.36 74.22,92.23 131.91,105.59l511.8 118.34c40.73,9.46 83.75,6.14 121.8,-11.18 13.53,-6.14 25.38,-13.42 32.7,-21.7 34.81,-39.12 60.93,-73.93 121.82,-87 125.12,-26.8 210.53,-2.6 256.6,34.81 69.57,56.54 69.57,169.64 69.57,169.64 0,0 13.07,78.28 -43.51,108.73z"/>
  <path class="fil2" d="M5760.86 2377.04c-75.82,113.3 -394.36,138.58 -394.36,138.58 -66.07,-180.25 -92.21,-349.84 -92.21,-349.84l-0.85 0.1c0,0 -64.29,-290.25 104.38,-360.97 134.83,-56.55 226.15,169.63 226.15,169.63l82.64 191.34c0,0 33.56,101.27 74.25,211.16z"/>
  <path class="fil2" d="M3595.28 2067.83l0 1376.27c0,258.52 -209.58,468.1 -468.1,468.1l-877.87 0c-99.94,0 -192.57,-31.35 -268.59,-84.71 -120.64,-84.64 -199.51,-224.83 -199.51,-383.39l0 -1376.27c0,-258.52 209.58,-468.1 468.1,-468.1l877.87 0c129.65,0 246.96,52.69 331.71,137.87 84.31,84.6 136.39,201.33 136.39,330.23z"/>
  <path class="fil2" d="M3595.28 2067.83l0 1376.27c0,258.52 -209.58,468.1 -468.1,468.1l-877.87 0c-99.94,0 -192.57,-31.35 -268.59,-84.71 -13.46,-13.49 -26.05,-27.77 -37.74,-42.8 -61.83,-79.33 -98.64,-179.06 -98.64,-287.44l0 -1376.26c0,-258.52 209.58,-468.11 468.1,-468.11l877.85 0c93.32,0 180.24,27.31 253.21,74.36 5.21,3.33 10.35,6.79 15.39,10.36 84.31,84.6 136.39,201.33 136.39,330.23z"/>
  <path class="fil2" d="M3542.13 2014.68l0 1376.22c0,258.53 -209.58,468.11 -468.11,468.11l-877.87 0c-93.29,0 -180.21,-27.31 -253.17,-74.32 -61.83,-79.33 -98.64,-179.06 -98.64,-287.44l0 -1376.26c0,-258.52 209.58,-468.11 468.1,-468.11l877.85 0c93.32,0 180.24,27.31 253.21,74.36 61.83,79.32 98.63,179.06 98.63,287.44z"/>
  <path class="fil2" d="M3033.8 1483.46l-275.78 0c-16.51,0 -29.9,-13.39 -29.9,-29.91 0,-16.53 13.39,-29.92 29.9,-29.92l275.78 0c16.49,0 29.88,13.39 29.88,29.92 0,16.52 -13.39,29.91 -29.88,29.91zm-398.71 0l-275.76 0c-16.52,0 -29.91,-13.39 -29.91,-29.91 0,-16.53 13.39,-29.92 29.91,-29.92l275.76 0c16.52,0 29.9,13.39 29.9,29.92 0,16.52 -13.38,29.91 -29.9,29.91zm458.78 -166.13l-811.26 0c-40.21,0 -72.8,32.59 -72.8,72.79l0 222.89 956.89 0 0 -222.89c0,-40.2 -32.59,-72.79 -72.83,-72.79z"/>
  <path class="fil2" d="M3070.35 4071.66c0,16.53 -13.39,29.92 -29.92,29.92l-275.77 0c-16.51,0 -29.9,-13.39 -29.9,-29.92 0,-16.49 13.39,-29.91 29.9,-29.91l275.77 0c16.53,0 29.92,13.42 29.92,29.91zm-398.71 0c0,16.53 -13.39,29.92 -29.9,29.92l-275.78 0c-16.51,0 -29.9,-13.39 -29.9,-29.92 0,-16.49 13.39,-29.91 29.9,-29.91l275.78 0c16.51,0 29.9,13.42 29.9,29.91zm501.69 63.44l0 -222.9 -956.88 0 0 222.9c0,40.19 32.6,72.79 72.8,72.79l811.27 0c40.23,0 72.81,-32.6 72.81,-72.79z"/>
 </g>
</svg>
