<?xml version="1.0" encoding="utf-8"?>
<!-- Generator: Adobe Illustrator 19.2.1, SVG Export Plug-In . SVG Version: 6.00 Build 0)  -->
<svg version="1.1" id="layer" xmlns="http://www.w3.org/2000/svg" xmlns:xlink="http://www.w3.org/1999/xlink" x="0px" y="0px"
	 viewBox="0 0 652 652" style="enable-background:new 0 0 652 652;" xml:space="preserve">
<style type="text/css">
	.st0{fill:#0000FF;}
	.st1{fill:url(#SVGID_1_);}
</style>
<path class="st0" d="M354.3,335.2c-1,0.3-1.5,0.6-2.9,0.6c-2.8,0-4.3-2.3-4.3-6.8v-50.8h-16.5l-2.1,9.7h-1.2
	c-4.8-5.8-11.5-11.3-24.8-11.3c-24.5,0-39.4,18.8-39.4,41.4c0,21.2,14.8,39.3,39.2,39.3c10.9,0,20.1-4.6,25.5-12.2h1.1
	c1.5,7.3,7.3,11.8,15.9,11.8c3.9,0,8-0.8,11.3-2.3v-19.2L354.3,335.2L354.3,335.2z M305,337.1c-11.1,0-19.6-8.6-19.6-20.1
	c0-12.2,8.6-20.5,19.5-20.5c11.2,0,19.9,9.1,19.9,20.5C324.8,327.7,316.4,337.1,305,337.1z M584.7,336.3l36.6-44.8v-13.3h-65.6v19.2
	h35.1l-36.9,44.8v13.3H622v-19.2H584.7z M540.2,335.7c-2.8,0-4.3-2.3-4.3-6.8v-50.8h-16.5l-2.1,9.7h-1.2
	c-4.8-5.8-11.5-11.3-24.8-11.3c-24.5,0-39.4,18.8-39.4,41.4c0,21.2,14.8,39.3,39.2,39.3c10.9,0,20.1-4.6,25.5-12.2h1.1
	c1.5,7.7,7.3,12.2,15.9,12.2c3.9,0,8-0.8,11.3-2.3v-19.6h-1.8C542.2,335.5,541.6,335.7,540.2,335.7z M493.9,337.1
	c-11.1,0-19.6-8.6-19.6-20.1c0-12.2,8.6-20.5,19.5-20.5c11.2,0,19.9,9.1,19.9,20.5C513.7,327.7,505.2,337.1,493.9,337.1z M428,342
	c8.2-5.9,13.4-13.4,13.4-25.7c0-7.9-4.7-17.2-12.2-21.7v-1.2h11.9v-15.9h-37.9c-24.2,0-42.8,14.9-42.8,37.3
	c0,23,17.2,37.5,41.8,37.5c10,0,16.3,4.4,16.3,11.8c0,6.1-5.7,10.2-13.4,10.2V394c23.1,0,36.8-10.2,36.8-28.8
	C442,355,436.7,346.4,428,342z M400.8,333.4c-10.2,0-18.5-7.7-18.5-18.4c0-11.3,8.3-18.8,18.4-18.8c10.2,0,18.5,7.7,18.5,18.4
	C419.2,325.9,410.9,333.4,400.8,333.4z M211.9,355.5h22.4v-36.9c0-15.4,10.2-20.3,20.8-20.3h2.8v-21.7h-2.6c-9.7,0-17.6,4.3-22,10.5
	h-1.1l-2.3-8.9h-17.8L211.9,355.5L211.9,355.5z M185.8,357.2c4.8,0,11.9-0.8,16.2-2.9v-19.8h-1.5c-2.1,1-5.7,2.5-10.4,2.5
	c-8.7,0-13.6-4.4-13.6-15.2v-24.9h23v-18.7h-23.1V261h-16.9l-3.5,17.2h-13.1v18.7h11.2v24.6C154.1,347.2,166.6,357.2,185.8,357.2z
	 M110.8,248h22.4v107.5h-22.4V248z M59.5,357.2c22.3,0,37.9-13,37.9-36.7v-42.3H75v41.9c0,10.7-5.5,17-15.4,17s-15.2-6.5-15.2-17.4
	v-41.5H22v42.3C22,343.9,36.8,357.2,59.5,357.2z"/>
<linearGradient id="SVGID_1_" gradientUnits="userSpaceOnUse" x1="303.1129" y1="662.6128" x2="405.2115" y2="662.6128" gradientTransform="matrix(1 0 0 1 0 -286)">
	<stop  offset="0.2032" style="stop-color:#0000FF;stop-opacity:0"/>
	<stop  offset="1" style="stop-color:#0000FF"/>
</linearGradient>
<path class="st1" d="M303.1,394c27.8,0,31.5-14.9,51-14.9c19.5,0,23.2,14.9,51,14.9v-19.8c-22.6,0-24.1-14.9-51-14.9
	c-27,0-28.5,14.9-51,14.9V394L303.1,394z"/>
</svg>
